<?xml version="1.0" encoding="UTF-8" standalone="no"?>
<!-- Generator: Adobe Illustrator 16.0.0, SVG Export Plug-In . SVG Version: 6.00 Build 0)  -->

<svg
   xmlns:dc="http://purl.org/dc/elements/1.1/"
   xmlns:cc="http://creativecommons.org/ns#"
   xmlns:rdf="http://www.w3.org/1999/02/22-rdf-syntax-ns#"
   xmlns:svg="http://www.w3.org/2000/svg"
   xmlns="http://www.w3.org/2000/svg"
   xmlns:sodipodi="http://sodipodi.sourceforge.net/DTD/sodipodi-0.dtd"
   xmlns:inkscape="http://www.inkscape.org/namespaces/inkscape"
   version="1.1"
   id="Capa_1"
   x="0px"
   y="0px"
   width="460px"
   height="460px"
   viewBox="0 0 460 460"
   style="enable-background:new 0 0 460 460;"
   xml:space="preserve"
   sodipodi:docname="Balanced.svg"
   inkscape:version="0.92.2 (5c3e80d, 2017-08-06)"><metadata
     id="metadata47"><rdf:RDF><cc:Work
         rdf:about=""><dc:format>image/svg+xml</dc:format><dc:type
           rdf:resource="http://purl.org/dc/dcmitype/StillImage" /></cc:Work></rdf:RDF></metadata><defs
     id="defs45" /><sodipodi:namedview
     pagecolor="#ffffff"
     bordercolor="#666666"
     borderopacity="1"
     objecttolerance="10"
     gridtolerance="10"
     guidetolerance="10"
     inkscape:pageopacity="0"
     inkscape:pageshadow="2"
     inkscape:window-width="1533"
     inkscape:window-height="845"
     id="namedview43"
     showgrid="false"
     inkscape:zoom="0.51304348"
     inkscape:cx="-796.22881"
     inkscape:cy="230"
     inkscape:window-x="67"
     inkscape:window-y="27"
     inkscape:window-maximized="1"
     inkscape:current-layer="Capa_1" /><g
     id="g10"
     style="fill:#125f35;fill-opacity:1"><g
       id="g8"
       style="fill:#125f35;fill-opacity:1"><path
         d="M 279.27,392.188 H 248.76 V 112.579 h 128.58 l -54.464,86.423 c -2.762,4.382 -1.448,10.176 2.935,12.937 1.554,0.98 3.282,1.445 4.992,1.445 3.115,0 6.161,-1.551 7.944,-4.378 l 47.235,-74.954 47.233,74.954 c 2.763,4.382 8.557,5.696 12.938,2.933 4.382,-2.761 5.694,-8.555 2.933,-12.937 l -54.462,-86.423 h 0.688 c 8.029,0 14.539,-6.51 14.539,-14.539 0,-8.028 -6.509,-14.538 -14.539,-14.538 H 288.356 C 282.316,74.716 273.402,68.064 262.966,64.906 261.475,48.005 247.289,34.75 230,34.75 c -17.29,0 -31.475,13.255 -32.967,30.156 -10.436,3.158 -19.35,9.81 -25.389,18.596 H 64.688 c -8.03,0 -14.54,6.51 -14.54,14.538 0,8.029 6.509,14.539 14.54,14.539 h 0.688 l -54.464,86.423 c -2.762,4.382 -1.448,10.176 2.934,12.937 1.554,0.98 3.283,1.445 4.992,1.445 3.114,0 6.162,-1.551 7.945,-4.378 l 47.235,-74.954 47.234,74.954 c 2.762,4.382 8.555,5.696 12.937,2.933 4.383,-2.761 5.696,-8.555 2.935,-12.937 L 82.661,112.579 h 128.58 v 279.607 h -30.509 c -18.259,0 -33.062,14.804 -33.062,33.063 h 164.661 c 0,-18.259 -14.803,-33.061 -33.061,-33.061 z"
         id="path2"
         inkscape:connector-curvature="0"
         style="fill:#125f35;fill-opacity:1" /><path
         d="M 143.035,223.359 H 5 c -2.761,0 -5,2.238 -5,5 0,40.813 33.204,74.017 74.018,74.017 40.813,0 74.018,-33.204 74.018,-74.017 -0.001,-2.761 -2.24,-5 -5.001,-5 z"
         id="path4"
         inkscape:connector-curvature="0"
         style="fill:#125f35;fill-opacity:1" /><path
         d="M 455,223.359 H 316.965 c -2.761,0 -5,2.238 -5,5 0,40.813 33.204,74.017 74.019,74.017 40.813,0 74.017,-33.204 74.017,-74.017 -10e-4,-2.761 -2.24,-5 -5.001,-5 z"
         id="path6"
         inkscape:connector-curvature="0"
         style="fill:#125f35;fill-opacity:1" /></g></g><g
     id="g12" /><g
     id="g14" /><g
     id="g16" /><g
     id="g18" /><g
     id="g20" /><g
     id="g22" /><g
     id="g24" /><g
     id="g26" /><g
     id="g28" /><g
     id="g30" /><g
     id="g32" /><g
     id="g34" /><g
     id="g36" /><g
     id="g38" /><g
     id="g40" /></svg>