<?xml version="1.0" encoding="UTF-8" standalone="no"?>
<!-- Created with Inkscape (http://www.inkscape.org/) -->

<svg
   xmlns:dc="http://purl.org/dc/elements/1.1/"
   xmlns:cc="http://creativecommons.org/ns#"
   xmlns:rdf="http://www.w3.org/1999/02/22-rdf-syntax-ns#"
   xmlns:svg="http://www.w3.org/2000/svg"
   xmlns="http://www.w3.org/2000/svg"
   xmlns:sodipodi="http://sodipodi.sourceforge.net/DTD/sodipodi-0.dtd"
   xmlns:inkscape="http://www.inkscape.org/namespaces/inkscape"
   version="1.1"
   id="svg2"
   width="225"
   height="225"
   viewBox="0 0 225 225"
   sodipodi:docname="High-Protein.svg"
   inkscape:version="0.92.2 (5c3e80d, 2017-08-06)">
  <metadata
     id="metadata8">
    <rdf:RDF>
      <cc:Work
         rdf:about="">
        <dc:format>image/svg+xml</dc:format>
        <dc:type
           rdf:resource="http://purl.org/dc/dcmitype/StillImage" />
        <dc:title></dc:title>
      </cc:Work>
    </rdf:RDF>
  </metadata>
  <defs
     id="defs6" />
  <sodipodi:namedview
     pagecolor="#ffffff"
     bordercolor="#666666"
     borderopacity="1"
     objecttolerance="10"
     gridtolerance="10"
     guidetolerance="10"
     inkscape:pageopacity="0"
     inkscape:pageshadow="2"
     inkscape:window-width="1533"
     inkscape:window-height="845"
     id="namedview4"
     showgrid="false"
     inkscape:zoom="1.0488889"
     inkscape:cx="112.5"
     inkscape:cy="74.364407"
     inkscape:window-x="67"
     inkscape:window-y="27"
     inkscape:window-maximized="1"
     inkscape:current-layer="svg2" />
  <path
     style="fill:#216193;fill-opacity:1"
     d="M 98.598043,224.06171 C 82.704946,222.24332 62.437533,214.57751 48.500823,205.11327 40.396172,199.60951 28.714225,188.43648 22.506031,180.25093 15.981115,171.64779 7.2423085,153.90181 4.1537845,142.98285 -6.5184414,105.25299 3.7186835,64.11311 30.899913,35.49835 40.517821,25.37319 49.073973,19.10671 62.098042,12.64901 c 32.729541,-16.2282397 67.270458,-16.2282397 99.999998,0 13.02407,6.4577 21.58022,12.72418 31.19813,22.84934 27.18123,28.61476 37.41835,69.75464 26.74613,107.4845 -3.08853,10.91896 -11.82733,28.66494 -18.35225,37.26808 -6.20819,8.18555 -17.89014,19.35858 -25.99479,24.86234 -14.60135,9.91559 -33.89344,17.04141 -51.4316,18.99703 -10.74447,1.19808 -14.83725,1.19033 -25.665617,-0.0486 z m 1.387,-60.83946 c 4.937837,-1.87736 7.555947,-12.08203 5.641987,-21.99092 -1.3962,-7.22838 -4.09693,-10.05204 -9.614407,-10.05204 -5.695561,0 -8.993172,3.779 -9.944941,11.3967 -1.895196,15.16864 4.269755,24.31428 13.917361,20.64626 z m -6.187,-6.24296 c -1.250909,-1.25091 -1.708575,-15.3111 -0.59301,-18.21821 0.33384,-0.86999 1.6357,-1.58179 2.89301,-1.58179 2.94139,0 3.5,1.61956 3.5,10.14753 0,9.43284 -2.25944,13.19303 -5.8,9.65247 z m -43.200001,1.31129 c 0,-4.75077 0.09424,-4.90639 3.340069,-5.51531 5.269382,-0.98854 8.159931,-4.79963 8.159931,-10.75857 0,-4.3853 -0.402333,-5.36095 -3.265777,-7.91944 -2.766939,-2.47226 -4.103474,-2.91797 -8.75,-2.91797 h -5.484223 v 16 16 h 3 c 2.924227,0 3,-0.12348 3,-4.88871 z m 0,-16.18084 c 0,-4.68533 0.170529,-5.04533 2.25,-4.75 4.123309,0.5856 3.302894,9.81955 -0.872445,9.81955 -0.988919,0 -1.377555,-1.43022 -1.377555,-5.06955 z m 21,15.56955 c 0,-3.025 0.39363,-5.5 0.874734,-5.5 0.481103,0 1.721361,2.3625 2.756129,5.25 1.772568,4.94632 2.097815,5.26794 5.622796,5.56022 l 3.741401,0.31022 -2.636107,-6.07836 c -2.524758,-5.8216 -2.561898,-6.16035 -0.879267,-8.01963 0.966262,-1.06771 1.985776,-3.9724 2.265586,-6.45486 0.466584,-4.13952 0.216453,-4.80586 -3.018264,-8.04058 -3.196247,-3.19625 -4.052173,-3.52701 -9.127008,-3.52701 h -5.6 v 16 16 h 3 c 2.969697,0 3,-0.0556 3,-5.5 z m 0,-15.5 c 0,-3.3415 0.414625,-4.99492 1.25,-4.98469 3.600663,0.0441 5.419955,4.31326 3.249633,7.62559 -2.673548,4.08035 -4.499633,3.0086 -4.499633,-2.6409 z m 47.999998,8 v -13 h 3.5 c 3.2315,0 3.5,-0.23292 3.5,-3.03621 v -3.03621 l -9.75,0.28621 -9.75,0.28621 -0.31642,2.75 c -0.29285,2.54509 -0.0507,2.75 3.25,2.75 h 3.56642 v 13 13 h 3 3 z m 25,10 c 0,-2.88889 -0.16667,-3 -4.5,-3 -4.47619,0 -4.5,-0.0185 -4.5,-3.5 0,-3.22222 0.2381,-3.5 3,-3.5 2.66667,0 3,-0.33333 3,-3 0,-2.66667 -0.33333,-3 -3,-3 -2.7619,0 -3,-0.27778 -3,-3.5 0,-3.48148 0.0238,-3.5 4.5,-3.5 4.34716,0 4.5,-0.10332 4.5,-3.04206 v -3.04207 l -7.75,0.29207 -7.75,0.29206 -0.27539,15.75 -0.2754,15.75 h 8.0254 8.02539 z m 11,-13.06336 v -16.06336 l -3.25,0.31336 -3.25,0.31336 -0.27539,15.75 -0.2754,15.75 h 3.5254 3.52539 z m 11.07608,7.81336 0.0761,-8.25 3.87451,8.25 c 3.36392,7.16279 4.21048,8.25 6.42392,8.25 h 2.54941 v -16 -16 h -2.96107 -2.96106 l -0.28894,8.53592 -0.28893,8.53593 -3.67251,-8.28593 c -3.09604,-6.98529 -4.0771,-8.33559 -6.25,-8.60234 l -2.57751,-0.31642 v 16.06642 16.06642 h 3 3 l 0.0761,-8.25 z m -111.293327,-44.5 0.282751,-11.250001 h 5.967249 5.967249 v 11.500001 11.5 h 5 5 v -28.5 -28.5 h -5 -5 v 11 11 h -5.966168 -5.966169 l -0.283831,-10.75 -0.283832,-10.75 h -5 -5 l -0.265663,28.3028 -0.265663,28.30281 5.265663,-0.30281 5.265663,-0.3028 z m 42.21725,-16.75 v -28.5 h -5.000001 -5 v 28.5 28.5 h 5 5.000001 z m 28.952157,27.02474 c 2.5146,-1.30035 2.91997,-1.30035 3.41896,0 0.36945,0.96277 1.96658,1.47526 4.5975,1.47526 h 4.03138 v -16 -16 h -8.5 -8.5 v 4.5 4.499999 h 4 c 3.95818,0 3.99985,0.0392 3.98526,3.750001 -0.0246,6.24962 -1.88622,8.75 -6.51479,8.75 -3.63858,0 -4.13446,-0.33436 -5.9323,-4 -2.59009,-5.28097 -2.75166,-22.99459 -0.26223,-28.75 1.44007,-3.32937 2.02213,-3.75 5.18921,-3.75 3.09807,0 3.78861,0.46429 5.25072,3.53036 0.93927,1.96967 2.22695,3.32182 2.91281,3.05863 0.67611,-0.25944 2.84987,-0.77574 4.83057,-1.14732 3.87446,-0.72686 3.99353,-1.60492 1.00908,-7.44167 -4.71932,-9.22968 -17.72751,-11.46809 -24.90928,-4.28632 -4.53947,4.53947 -5.78834,8.81131 -6.32012,21.61847 -0.70065,16.87422 1.68225,25.04551 8.73358,29.94861 3.03316,2.10909 9.15056,2.22408 12.97965,0.24398 z m 30.04784,-10.02474 V 99.179289 h 5.96725 5.96725 l 0.28275,11.250001 0.28275,11.25 5.26566,0.3028 5.26567,0.30281 -0.26567,-28.30281 -0.26566,-28.3028 h -5 -5 l -0.28383,10.75 -0.28383,10.75 h -5.96617 -5.96617 V 76.12703 65.07477 l -5.25,0.30226 c -2.8875,0.16624 -5.1375,0.63976 -5,1.05226 0.1375,0.4125 0.25,13.125 0.25,28.25 v 27.5 h 5 5 z"
     id="path817"
     inkscape:connector-curvature="0" />
</svg>
