<?xml version="1.0" encoding="UTF-8" standalone="no"?>
<!-- Created with Inkscape (http://www.inkscape.org/) -->

<svg
   xmlns:dc="http://purl.org/dc/elements/1.1/"
   xmlns:cc="http://creativecommons.org/ns#"
   xmlns:rdf="http://www.w3.org/1999/02/22-rdf-syntax-ns#"
   xmlns:svg="http://www.w3.org/2000/svg"
   xmlns="http://www.w3.org/2000/svg"
   xmlns:sodipodi="http://sodipodi.sourceforge.net/DTD/sodipodi-0.dtd"
   xmlns:inkscape="http://www.inkscape.org/namespaces/inkscape"
   version="1.1"
   id="svg2"
   width="250"
   height="250"
   viewBox="0 0 250 250"
   sodipodi:docname="Low-Fat.svg"
   inkscape:version="0.92.2 (5c3e80d, 2017-08-06)">
  <metadata
     id="metadata8">
    <rdf:RDF>
      <cc:Work
         rdf:about="">
        <dc:format>image/svg+xml</dc:format>
        <dc:type
           rdf:resource="http://purl.org/dc/dcmitype/StillImage" />
        <dc:title />
      </cc:Work>
    </rdf:RDF>
  </metadata>
  <defs
     id="defs6" />
  <sodipodi:namedview
     pagecolor="#ffffff"
     bordercolor="#666666"
     borderopacity="1"
     objecttolerance="10"
     gridtolerance="10"
     guidetolerance="10"
     inkscape:pageopacity="0"
     inkscape:pageshadow="2"
     inkscape:window-width="1533"
     inkscape:window-height="845"
     id="namedview4"
     showgrid="false"
     fit-margin-top="0"
     fit-margin-left="0"
     fit-margin-right="0"
     fit-margin-bottom="0"
     inkscape:zoom="2.3177389"
     inkscape:cx="34.42822"
     inkscape:cy="130.20624"
     inkscape:window-x="67"
     inkscape:window-y="27"
     inkscape:window-maximized="1"
     inkscape:current-layer="svg2" />
  <path
     style="fill:#125f35;fill-opacity:1;stroke-width:1.02474606"
     d="m 174.98579,248.61141 c -11.00379,-2.32756 -24.39522,-6.65075 -42.09503,-13.58963 -37.369443,-14.64997 -53.898137,-13.5276 -79.380106,5.39023 -4.785722,3.55292 -9.121231,6.45986 -9.634464,6.45986 -0.513233,0 -2.424497,-1.15374 -4.247255,-2.56386 l -3.314106,-2.56385 13.811434,-8.92798 c 19.319854,-12.48871 24.380958,-14.43625 39.126913,-15.05624 15.107484,-0.63518 21.546764,0.72902 41.143154,8.71634 26.81275,10.92865 40.47527,14.75969 58.31628,16.35215 15.55256,1.38818 32.11005,-3.63343 44.94446,-13.63095 6.50456,-5.06679 8.28085,-5.0267 7.70781,0.17397 -0.38975,3.53734 -11.35175,11.37219 -23.11993,16.52446 -7.80541,3.4173 -9.6012,3.74945 -21.92553,4.05541 -8.54386,0.21209 -16.29924,-0.27501 -21.33363,-1.33991 z m 9.25222,-16.56605 c -12.04067,-1.48034 -29.53956,-6.91808 -50.56295,-15.71236 -20.81714,-8.70799 -24.95594,-9.73452 -39.376463,-9.76641 -10.175339,-0.0225 -13.928741,0.46323 -19.981002,2.58578 -8.977076,3.1483 -18.242251,7.88634 -27.996741,14.31699 -3.984755,2.62697 -7.356566,4.61092 -7.492911,4.4088 -0.136347,-0.20214 -5.148515,-12.20094 -11.138151,-26.66403 -8.253072,-19.92858 -10.608637,-26.53992 -9.727336,-27.3016 0.639601,-0.55279 4.787335,-3.58172 9.217186,-6.73096 22.447183,-15.95802 48.468364,-23.24017 72.001805,-20.15003 12.345623,1.62106 18.668203,3.49558 41.205513,12.21657 26.48073,10.24691 33.72089,11.93794 51.0104,11.91415 15.8624,-0.0219 22.19812,-1.55109 33.4445,-8.07252 l 4.97411,-2.88433 -2.28046,7.83769 c -1.25426,4.31071 -3.47565,12.03926 -4.93642,17.17455 l -2.65593,9.33688 4.18964,10.61103 c 2.30431,5.83606 4.53985,11.11266 4.96787,11.72577 1.43082,2.0495 0.81005,2.93734 -4.52092,6.46584 -10.53631,6.97382 -26.43535,10.39792 -40.34174,8.68819 z m 46.74256,-33.91822 -1.71249,-4.37673 7.6885,-26.76371 7.68849,-26.76372 0.25937,8.58847 c 0.24202,8.01448 -0.13934,10.06866 -5.70633,30.73636 -3.28112,12.18135 -6.08704,22.32973 -6.23536,22.55198 -0.14833,0.22225 -1.0403,-1.56544 -1.98218,-3.97265 z M 15.027501,156.82137 C 6.5804741,144.20692 0.92956207,126.69733 0.13816167,110.68615 -1.0109755,87.43739 4.9854731,67.762641 18.979126,48.867702 36.95946,24.589736 63.375426,8.822622 97.430817,2.041603 c 13.762753,-2.74040604 42.265693,-2.71813604 55.485013,0.04339 62.48245,13.05245 101.77571,58.515552 96.6337,111.807147 -1.56539,16.22352 -2.74782,19.27846 -9.86285,25.48193 -3.42546,2.98659 -6.2281,5.18538 -6.2281,4.88621 0,-0.29917 0.98915,-2.45514 2.19813,-4.79104 3.18777,-6.15924 5.83853,-16.21461 6.97896,-26.47395 C 244.46039,96.57996 240.71264,79.908708 231.55852,63.720585 216.88546,37.772788 189.60037,19.519934 153.36329,11.410497 141.96616,8.859951 111.36882,8.537948 99.668117,10.845428 65.891639,17.506418 39.369974,33.370374 22.945882,56.736909 12.442736,71.679729 7.9065061,84.76401 7.2503441,102.00909 c -0.663682,17.44269 3.2537339,32.53509 12.2253869,47.10006 l 4.470215,7.25714 -3.037866,2.35015 -3.037865,2.35015 z m 167.420669,3.57836 c -10.58713,-1.48004 -25.02383,-6.03104 -53.13929,-16.75155 -31.822243,-12.13393 -64.500589,-10.84213 -91.23791,3.60669 l -6.41673,3.4676 -4.275862,-6.19536 C 21.788589,136.42799 17.176903,124.04617 15.837888,113.54227 8.9942291,59.857278 68.729961,14.02525 137.1843,20.43969 c 48.00386,4.498156 85.86362,31.622978 95.30543,68.28206 2.44372,9.48812 2.48637,22.6665 0.10603,32.76535 -2.83708,12.03663 -10.79904,26.79233 -17.97519,33.31297 -5.66007,5.14304 -18.92431,7.4517 -32.1724,5.59966 z m 21.25434,-73.90399 6.03562,-24.520389 -9.85404,-8.718961 -10.65844,46.39088 -5.15011,-26.230679 c -2.62511,5.260785 -5.69415,12.759639 -8.27316,17.722789 -2.0363,-21.598673 -2.21741,-49.559004 -3.60537,-50.360021 -3.2356,-0.927798 -10.48465,-4.310275 -12.50672,-3.047585 l 1.27981,20.981849 c 2.54,46.506277 7.35339,65.134087 7.59181,88.316587 l 13.67499,-48.41887 3.82095,53.36294 c 12.19902,-43.93814 13.23544,-47.756 17.64466,-65.47854 z m -53.47144,1.4327 V 34.591609 l -3.35595,-0.927969 c -4.41224,-1.220037 -37.94866,-1.208046 -43.41404,0.01552 l -4.261343,0.954017 0.2342,45.374228 0.23418,45.374215 7.159363,1.35134 c 13.69959,0.9285 21.99053,6.00194 33.78321,10.66585 5.0451,1.99529 9.2736,3.6815 9.39665,3.74713 0.12305,0.0656 0.22373,-23.88224 0.22373,-53.2175 z m -18.97433,29.63949 c -7.8068,-1.77131 -8.78361,-2.40109 -13.64497,-2.39244 l 0.4022,-49.679382 V 53.259775 h 6.7119 6.71189 v 13.494176 c 0.0418,10.281683 -0.21676,27.690579 -0.18102,50.813979 z m -77.737497,11.93565 c 12.95521,-3.81718 17.110933,-5.67275 29.255764,-6.50544 L 82.920931,95.38638 64.16319,102.05345 C 63.925652,81.629936 64.614443,69.965321 64.630497,46.949428 53.30635,53.871511 61.22124,48.259523 49.330498,57.739426 l -3.801807,3.147492 -0.0016,35.495552 c -8.8e-4,19.52255 0.300434,35.48312 0.669589,35.46793 0.369154,-0.0152 3.664308,-1.07125 7.322563,-2.34682 z"
     id="path817"
     inkscape:connector-curvature="0"
     sodipodi:nodetypes="csssccssssscsscssssccscscscsccscccssscccccsscssscsssssssssssccccssscssssssscccccccccccccsccsccccccscccccccccccccccsccc" />
  <flowRoot
     xml:space="preserve"
     id="flowRoot819"
     style="font-style:normal;font-weight:normal;font-size:40px;line-height:1.25;font-family:sans-serif;letter-spacing:0px;word-spacing:0px;fill:#000000;fill-opacity:1;stroke:none"
     transform="translate(-9.3739629,-15.29414)"><flowRegion
       id="flowRegion821"><rect
         id="rect823"
         width="97.07737"
         height="44.871319"
         x="75.936081"
         y="275.84448" /></flowRegion><flowPara
       id="flowPara825">Tt</flowPara></flowRoot>  <g
     aria-label="T"
     style="font-style:normal;font-variant:normal;font-weight:normal;font-stretch:normal;font-size:40px;line-height:1.25;font-family:Dyuthi;-inkscape-font-specification:Dyuthi;letter-spacing:0px;word-spacing:0px;fill:#ffffff;fill-opacity:1;stroke:none"
     id="text829"
     transform="matrix(1.2229903,0.29993338,-0.20982033,1.7482368,-5.9042561,-252.15287)">
    <path
       d="m 177.82744,223.86318 -3.08594,-0.10235 c -0.65104,0 -4.15784,0.2743 -4.5745,-0.19444 0.36944,-3.37121 0.28421,-5.66746 1.01586,-8.4044 1.93987,-0.51411 4.0374,-0.4542 4.6618,-0.42683 l 10.44081,0.45762 c 0.75448,0.0331 7.96372,0.45017 8.35435,0.89288 0.41666,0.41666 -0.4428,3.60699 -0.4428,4.23199 0,0.57292 0.50415,2.49082 0.13957,2.8554 -0.44271,0.44272 -7.35916,0.13017 -8.08833,0.13017 l 0.1156,14.44134 -2.74576,-0.13136 c -2.34504,-0.0785 -3.23999,0.56621 -5.12659,-0.56197 -0.44271,-0.49479 -0.66406,-1.11979 -0.66406,-1.875 z"
       id="path831"
       inkscape:connector-curvature="0"
       sodipodi:nodetypes="ccccsscssccccsc" />
  </g>
  <g
     aria-label="FA"
     transform="matrix(1.0157855,0.27037816,-0.26348432,0.97173405,3.9433541,-44.152964)"
     style="font-style:normal;font-variant:normal;font-weight:bold;font-stretch:normal;font-size:51.45146942px;line-height:1.25;font-family:sans-serif;-inkscape-font-specification:'sans-serif Bold';letter-spacing:0px;word-spacing:0px;fill:#ffffff;fill-opacity:1;stroke:none;stroke-width:1.28628671"
     id="text836">
    <path
       d="m 122.89623,175.579 c 0,0 12.02635,-6.30143 25.38812,-6.2934 l 1.32729,7.22373 c 0,0 -11.15753,0.99907 -15.89101,3.9428 l 1.40396,6.87282 c 4.48135,-2.72794 14.94337,-3.70768 14.94337,-3.70768 l 1.4696,7.1942 c 0,0 -11.26321,2.1269 -14.94337,3.70769 l 3.19677,15.64924 -9.35481,2.32108 z"
       style="font-style:normal;font-variant:normal;font-weight:bold;font-stretch:normal;font-family:sans-serif;-inkscape-font-specification:'sans-serif Bold';stroke-width:1.28628671"
       id="path838"
       inkscape:connector-curvature="0"
       sodipodi:nodetypes="ccccccccccc" />
    <path
       d="m 181.19146,200.72032 -15.12753,-1.1582 -2.8256,6.61542 -9.72484,-0.74456 c 4.79515,-17.87346 13.51059,-37.05947 13.51059,-37.05947 4.72128,-0.51682 9.61635,0.24036 14.32591,1.69133 6.74649,15.82642 11.49004,38.37909 11.49004,38.37909 l -9.72484,-0.74456 z m -12.91855,-7.99313 10.92747,0.88333 -3.52638,-15.92398 -2.38202,-0.10988 z"
       style="font-style:normal;font-variant:normal;font-weight:bold;font-stretch:normal;font-family:sans-serif;-inkscape-font-specification:'sans-serif Bold';stroke-width:1.28628671"
       id="path840"
       inkscape:connector-curvature="0"
       sodipodi:nodetypes="cccccccccccccc" />
  </g>
</svg>
