<?xml version="1.0" encoding="UTF-8" standalone="no"?>
<!-- Created with Inkscape (http://www.inkscape.org/) -->

<svg
   xmlns:dc="http://purl.org/dc/elements/1.1/"
   xmlns:cc="http://creativecommons.org/ns#"
   xmlns:rdf="http://www.w3.org/1999/02/22-rdf-syntax-ns#"
   xmlns:svg="http://www.w3.org/2000/svg"
   xmlns="http://www.w3.org/2000/svg"
   xmlns:sodipodi="http://sodipodi.sourceforge.net/DTD/sodipodi-0.dtd"
   xmlns:inkscape="http://www.inkscape.org/namespaces/inkscape"
   version="1.1"
   id="svg2"
   width="225"
   height="225"
   viewBox="0 0 225 225"
   sodipodi:docname="Low-Carb.svg"
   inkscape:version="0.92.2 (5c3e80d, 2017-08-06)">
  <metadata
     id="metadata8">
    <rdf:RDF>
      <cc:Work
         rdf:about="">
        <dc:format>image/svg+xml</dc:format>
        <dc:type
           rdf:resource="http://purl.org/dc/dcmitype/StillImage" />
        <dc:title></dc:title>
      </cc:Work>
    </rdf:RDF>
  </metadata>
  <defs
     id="defs6" />
  <sodipodi:namedview
     pagecolor="#ffffff"
     bordercolor="#666666"
     borderopacity="1"
     objecttolerance="10"
     gridtolerance="10"
     guidetolerance="10"
     inkscape:pageopacity="0"
     inkscape:pageshadow="2"
     inkscape:window-width="1533"
     inkscape:window-height="845"
     id="namedview4"
     showgrid="false"
     inkscape:zoom="1.0488889"
     inkscape:cx="112.5"
     inkscape:cy="112.5"
     inkscape:window-x="67"
     inkscape:window-y="27"
     inkscape:window-maximized="1"
     inkscape:current-layer="svg2" />
  <path
     style="fill:#0fa8ab;fill-opacity:1"
     d="M 92.315996,223.50482 C 44.936726,214.9164 8.5968412,178.15822 1.0361482,131.17427 c -1.37288395,-8.53143 -1.38350695,-28.11753 -0.01976,-36.440455 0.60997,-3.72266 2.270055,-10.47266 3.689078,-15 C 17.012956,40.467165 50.29469,11.023005 90.99142,3.3971249 c 10.68042,-2.00133 30.91606,-2.0132 41.1773,-0.0242 43.3822,8.4092401 77.2219,40.7871101 88.12941,84.3223201 1.86478,7.44289 2.20165,11.5175 2.175,26.306975 -0.0284,15.77784 -0.29569,18.48409 -2.71568,27.5 -9.95123,37.07422 -38.13637,66.62482 -74.6763,78.29406 -16.28893,5.20196 -36.63679,6.63207 -52.76515,3.70849 z m -33.01591,-67.54656 c 3.96897,-1.10229 9.18542,-4.97451 10.82269,-8.03379 0.84588,-1.58054 0.38123,-2.17598 -3.07327,-3.93834 l -4.06983,-2.07627 -3.02599,2.5462 c -8.67584,7.30024 -19.54065,-2.30906 -14.67786,-12.98173 2.50444,-5.49664 10.26873,-7.09955 14.39623,-2.97206 1.375,1.375 2.91427,2.5 3.42061,2.5 1.53563,0 7.98848,-3.31871 7.98848,-4.10849 0,-1.63774 -5.18747,-6.75259 -8.38951,-8.27205 -4.31616,-2.04816 -12.56721,-2.08221 -17.37896,-0.0717 -16.90564,7.06362 -15.65329,31.48118 1.89537,36.95453 5.41684,1.68949 7.37761,1.76306 12.09204,0.45373 z m 23.22615,-2.70599 c 0.593,-2.6999 0.73973,-2.75 8.05491,-2.75 7.31517,0 7.46191,0.0501 8.05491,2.75 0.57596,2.62233 0.87886,2.75 6.524544,2.75 3.25629,0 5.92054,-0.34317 5.92054,-0.7626 0,-0.41943 -3.15,-9.04424 -7,-19.16624 -3.84999,-10.122 -6.999994,-18.55383 -6.999994,-18.7374 0,-0.18357 -2.88566,-0.33376 -6.41258,-0.33376 h -6.41257 l -2.73585,7.25 c -1.50472,3.9875 -4.69406,12.35695 -7.08743,18.59878 -2.39336,6.24183 -4.35157,11.75433 -4.35157,12.25 0,0.49567 2.66424,0.90122 5.92054,0.90122 5.64569,0 5.94859,-0.12767 6.52455,-2.75 z m 5.79773,-18.26786 c 1.13014,-3.30982 2.15181,-5.89732 2.27039,-5.75 0.11858,0.14732 1.1703,2.85536 2.33715,6.01786 l 2.12157,5.75 h -4.39195 -4.39195 z m 34.757174,14.51786 c 0,-6.10388 0.13927,-6.5 2.28537,-6.5 1.81734,0 2.94178,1.33114 5.49066,6.5 l 3.2053,6.5 h 6.07976 6.07976 l -3.75833,-6.95828 -3.75832,-6.95828 2.61551,-2.05735 c 5.60242,-4.40687 5.98592,-13.64662 0.78237,-18.85016 -3.54113,-3.54113 -6.45174,-4.17593 -19.14708,-4.17593 h -9.875 v 19.5 19.5 h 5 5 z m 0,-18.94774 v -3.55226 h 5.53138 c 4.19856,0 5.68265,0.39419 6.15915,1.63592 1.16915,3.04675 -1.11142,4.84734 -6.54352,5.16634 l -5.14701,0.30226 z m 58.08454,21.68196 c 4.1405,-4.63801 3.71737,-11.42753 -0.9255,-14.85068 -1.32581,-0.97751 -1.24325,-1.46102 0.66334,-3.88486 3.06322,-3.89426 2.91544,-9.48814 -0.33658,-12.74016 -3.18741,-3.1874 -6.16732,-3.75852 -19.6108,-3.75852 h -10.875 v 19.57558 19.57559 l 14.08454,-0.32559 14.08453,-0.32558 z m -20.58454,-8.27545 v -3.04123 l 5.98996,0.29123 c 4.93742,0.24006 6.05294,0.62161 6.34839,2.1714 0.49705,2.60726 -1.49683,3.58663 -7.33835,3.60452 -4.90731,0.015 -5,-0.0411 -5,-3.02592 z m 0.25525,-14.45877 c 0.43784,-2.29041 0.92025,-2.5 5.75434,-2.5 3.56032,0 5.44843,0.44823 5.80528,1.37814 0.90335,2.35412 -1.50349,3.62186 -6.8762,3.62186 -4.96619,0 -5.14326,-0.0945 -4.68342,-2.5 z M 79.081146,101.47233 v -2.529935 l 3.04284,2.249665 c 2.27819,1.68435 4.78013,2.34784 9.95627,2.64032 8.782664,0.49626 14.841414,-2.12091 18.816864,-8.128225 2.28326,-3.45023 2.68402,-5.12284 2.68402,-11.20188 0,-6.12234 -0.39412,-7.74161 -2.75112,-11.30328 -7.56861,-11.43694 -26.923434,-11.44558 -34.487584,-0.0154 -2.97969,4.50262 -4.12865,12.89181 -2.43215,17.7584 l 1.06682,3.06027 h -5.44798 -5.44798 v -14.5 -14.5 h -5.5 -5.5 v 18.83333 c 0,10.35834 0.3,19.133335 0.66666,19.499995 0.36667,0.36667 6.21667,0.66667 13,0.66667 h 12.33334 z m 7.92307,-9.393135 c -6.41524,-6.41524 -2.17237,-18.07692 6.57693,-18.07692 5.54263,0 9.499994,4.37393 9.499994,10.5 0,9.45693 -9.649284,14.00456 -16.076924,7.57692 z m 48.415234,10.173075 c 0.26019,-0.9625 1.49684,-6.024995 2.7481,-11.249995 l 2.27502,-9.5 1.87165,7.5 c 4.16461,16.688235 3.134,14.999995 9.15691,14.999995 h 5.3129 l 5.10201,-17.796925 c 2.80611,-9.78831 5.3961,-18.56331 5.75555,-19.5 0.57144,-1.48916 -0.11112,-1.70307 -5.43441,-1.70307 -5.49326,0 -6.13854,0.21978 -6.60597,2.25 -0.28492,1.2375 -1.53659,6.72337 -2.78149,12.19082 l -2.26345,9.94082 -2.92928,-12.19082 -2.92928,-12.19082 h -4.2095 -4.2095 l -2.80609,11.50526 c -1.54334,6.3279 -3.10331,10.9404 -3.46658,10.25 -0.36328,-0.69039 -1.69118,-5.86776 -2.9509,-11.50526 l -2.29039,-10.25 h -5.90919 c -5.15542,0 -5.84414,0.22323 -5.39921,1.75 0.2805,0.9625 1.91606,6.7 3.6346,12.75 1.71853,6.05 4.01342,14.0375 5.09974,17.75 l 1.97514,6.749995 h 5.39027 c 4.2867,0 5.48712,-0.35828 5.86335,-1.75 z"
     id="path817"
     inkscape:connector-curvature="0" />
</svg>
